<svg width="30" height="30" viewBox="0 0 30 30" fill="none" xmlns="http://www.w3.org/2000/svg">
<path d="M6.23141 9.42874C6.39509 9.42874 6.52806 9.57049 6.52806 9.74535V15.3695H9.4334C9.59739 15.3695 9.72975 15.5113 9.72975 15.6861V16.8262C9.72975 17.001 9.59739 17.143 9.4334 17.143H5.16154C5.08178 17.143 5.00982 17.1094 4.95641 17.0545L4.95357 17.0518L4.95195 17.0501C4.95059 17.049 4.94961 17.0477 4.94866 17.0465L4.94789 17.0455C4.89681 16.9888 4.86489 16.9113 4.86489 16.8262V9.74535C4.86489 9.57049 4.99786 9.42874 5.16185 9.42874H6.23141Z" fill="#141715"/>
<path d="M12.1621 9.74471C12.1621 9.57049 12.0325 9.42874 11.8727 9.42874H10.8303C10.6704 9.42874 10.5405 9.57049 10.5405 9.74471V16.8271C10.5405 17.0016 10.6704 17.143 10.8303 17.143H11.8727C12.0325 17.143 12.1621 17.0016 12.1621 16.8271V9.74471Z" fill="#141715"/>
<path d="M19.4596 9.74471C19.4596 9.57049 19.3234 9.42874 19.1549 9.42874H18.0575C17.8892 9.42874 17.7528 9.57049 17.7528 9.74471V13.9524L14.6289 9.56931C14.6217 9.55806 14.6136 9.54745 14.6052 9.53717L14.6031 9.53535C14.5971 9.52817 14.5911 9.52195 14.5849 9.51563L14.5829 9.51371L14.5791 9.51038C14.574 9.50535 14.5686 9.50074 14.563 9.49635L14.5616 9.49505L14.5595 9.49328L14.5552 9.48981L14.5522 9.4877L14.5485 9.48502L14.544 9.48179C14.5424 9.48067 14.5409 9.47959 14.5392 9.47856C14.5362 9.47642 14.5333 9.47449 14.5299 9.47299C14.5246 9.46956 14.5192 9.46613 14.5137 9.46335L14.5105 9.46169C14.5084 9.46058 14.5063 9.45949 14.5042 9.45863L14.5003 9.45675C14.4958 9.45461 14.4914 9.45255 14.4867 9.45081L14.4834 9.44964L14.4808 9.44866L14.4768 9.44717C14.4708 9.44492 14.4649 9.44278 14.4586 9.44117C14.4569 9.44059 14.4553 9.44014 14.4535 9.43969L14.4503 9.43879L14.448 9.43806C14.4473 9.43793 14.4467 9.43779 14.446 9.43764C14.4431 9.43701 14.4402 9.4363 14.4373 9.43559L14.4307 9.43399L14.4279 9.43363C14.4266 9.43347 14.4254 9.4333 14.4241 9.43314C14.4219 9.43288 14.4198 9.43265 14.4177 9.43249C14.4133 9.43144 14.4089 9.43103 14.4045 9.43062L14.4016 9.43035C14.3981 9.42991 14.3947 9.42977 14.3912 9.42963L14.386 9.42938C14.384 9.42938 14.3823 9.42922 14.3806 9.42906C14.3793 9.42895 14.378 9.42882 14.3766 9.42877L14.3752 9.42874H13.2781C13.1099 9.42874 12.9731 9.57049 12.9731 9.74471V16.8271C12.9731 17.0016 13.1099 17.143 13.2781 17.143H14.3752C14.5437 17.143 14.6802 17.0016 14.6802 16.8271V12.6206L17.8079 17.0093C17.8295 17.0411 17.8563 17.067 17.8854 17.0875L17.8883 17.0901L17.8949 17.0943C17.8966 17.0953 17.8984 17.0965 17.9001 17.0975C17.9025 17.099 17.9049 17.1005 17.9073 17.1019C17.9078 17.1022 17.9083 17.1025 17.9088 17.1028C17.9103 17.1037 17.9118 17.1045 17.9133 17.1052L17.916 17.1066C17.9204 17.1094 17.9255 17.1118 17.9304 17.1141L17.9368 17.1169C17.9396 17.1181 17.9423 17.1194 17.9454 17.1206C17.9466 17.1211 17.948 17.1217 17.9493 17.1222C17.9509 17.1229 17.9526 17.1235 17.9543 17.1241C17.9615 17.1268 17.9682 17.129 17.9751 17.1311L17.9795 17.1321C18.0044 17.139 18.0305 17.143 18.0575 17.143H19.1549C19.3234 17.143 19.4596 17.0016 19.4596 16.8271V9.74471Z" fill="#141715"/>
<path d="M24.8388 11.2023C25.0028 11.2023 25.1352 11.0607 25.1352 10.8857V9.74556C25.1352 9.57081 25.0028 9.42874 24.8388 9.42874H20.5671C20.487 9.42874 20.4143 9.46303 20.3609 9.5182L20.3596 9.51935C20.3588 9.52007 20.358 9.52078 20.3573 9.52163C20.3556 9.52345 20.3541 9.52528 20.3527 9.5272C20.3018 9.58388 20.2703 9.6606 20.2703 9.74535V16.8264C20.2703 16.9115 20.3021 16.9888 20.3533 17.0455C20.3544 17.047 20.3559 17.049 20.3573 17.0501C20.3586 17.0517 20.3603 17.0532 20.3617 17.0545C20.4149 17.1091 20.4871 17.143 20.5666 17.143H24.8388C25.0028 17.143 25.1352 17.001 25.1352 16.8264V15.6861C25.1352 15.5117 25.0028 15.3695 24.8388 15.3695H21.9337V14.1725H24.8388C25.0028 14.1725 25.1352 14.0307 25.1352 13.8559V12.7159C25.1352 12.541 25.0028 12.399 24.8388 12.399H21.9337V11.2023H24.8388Z" fill="#141715"/>
<path fill-rule="evenodd" clip-rule="evenodd" d="M15.8164 29.3473C18.2676 27.945 24.0237 23.9713 26.7849 20.6356C28.9588 18.1337 30 15.5947 30 12.7754C30 5.73107 23.2713 0 14.9999 0C6.72953 0 0 5.73107 0 12.7754C0 19.0907 5.33635 24.3796 12.5448 25.3798C13.0333 25.4902 13.6981 25.7178 13.8663 26.1559C14.0176 26.5541 13.9652 27.1775 13.9146 27.5795C13.9146 27.5795 13.7387 28.6904 13.7007 28.9271L13.6949 28.9621C13.6236 29.3883 13.444 30.4639 14.9999 29.7756C15.1933 29.6901 15.4663 29.5472 15.802 29.3555L15.8164 29.3473ZM25.1996 19.0962L25.1821 19.1164L25.165 19.137C23.7727 20.8189 21.407 22.7977 19.0877 24.4945C17.9808 25.3044 16.9503 26.0025 16.1104 26.5405C16.0914 26.1951 16.0326 25.7519 15.8637 25.3076L15.8623 25.304L15.861 25.3004C15.4679 24.2761 14.6459 23.7899 14.254 23.5919C13.7884 23.3566 13.3151 23.2269 12.995 23.1545L12.9105 23.1354L12.8249 23.1235C6.31897 22.2208 2.1526 17.5946 2.1526 12.7754C2.1526 7.42243 7.46066 2.2756 14.9999 2.2756C22.5401 2.2756 27.8474 7.42237 27.8474 12.7754C27.8474 14.9103 27.0891 16.9216 25.1996 19.0962Z" fill="#141715"/>
</svg>
